/* XPM */
static char* HERBSTLUFTWM[] = {
    "16 16 4 1",
    "  c #ff00ff",
    ". c #020202",
    "# c #9fbc00",
    "l c #8f5902",
    "   .##..        ",
    "  .##.##..      ",
    " .##.##.##..    ",
    "  ..##.##.##.   ",
    "  .##.##.##l.   ",
    " .##.##.##ll.   ",
    "  ..##.##.ll.   ",
    "  .##.##..ll.   ",
    " .##.##. .ll.   ",
    "  ..##..........",
    "  .##..ll.ll.ll.",
    " .##. .ll.ll.ll.",
    "  ..  ..........",
    "         .ll.   ",
    "         .ll.   ",
    "         ....   "};

